PathFileType	4	(X/Y/Z)	/Users/itak/Documents/Research/Walk-IL/dataset/trc/00202_00008.trc
DataRate	CameraRate	NumFrames	NumMarkers	Units	OrigDataRate	OrigDataStartFrame	OrigNumFrames
100.000000	100.000000	4	53	mm	100.000000	186	498
Frame#	Time	RPSI			LPSI			L3			STRN			T10			C7			CLAV			RBAK			LBAK			LSHO			LUPA			LAEL			LAOL			LWTS			LWPS			LFRA			LIFD			LHPS			LHTS			RSHO			RUPA			RAEL			RAOL			RWTS			RWPS			RFRA			RIFD			RHTS			RHPS			RBHD			LFHD			RFHD			LBHD			LHIP			RHIP			RASI			LASI			LKNE			LTHI			LANK			LTIP			LTOE			LMT1			LMT5			LHEE			RKNE			RTHI			RANK			RTIP			RTOE			RMT1			RMT5			RHEE			
		X1	Y1	Z1	X2	Y2	Z2	X3	Y3	Z3	X4	Y4	Z4	X5	Y5	Z5	X6	Y6	Z6	X7	Y7	Z7	X8	Y8	Z8	X9	Y9	Z9	X10	Y10	Z10	X11	Y11	Z11	X12	Y12	Z12	X13	Y13	Z13	X14	Y14	Z14	X15	Y15	Z15	X16	Y16	Z16	X17	Y17	Z17	X18	Y18	Z18	X19	Y19	Z19	X20	Y20	Z20	X21	Y21	Z21	X22	Y22	Z22	X23	Y23	Z23	X24	Y24	Z24	X25	Y25	Z25	X26	Y26	Z26	X27	Y27	Z27	X28	Y28	Z28	X29	Y29	Z29	X30	Y30	Z30	X31	Y31	Z31	X32	Y32	Z32	X33	Y33	Z33	X34	Y34	Z34	X35	Y35	Z35	X36	Y36	Z36	X37	Y37	Z37	X38	Y38	Z38	X39	Y39	Z39	X40	Y40	Z40	X41	Y41	Z41	X42	Y42	Z42	X43	Y43	Z43	X44	Y44	Z44	X45	Y45	Z45	X46	Y46	Z46	X47	Y47	Z47	X48	Y48	Z48	X49	Y49	Z49	X50	Y50	Z50	X51	Y51	Z51	X52	Y52	Z52	X53	Y53	Z53	

187	1.86	-1129.696899414062	1054.736694335938	-473.5013122558594	-1114.353393554688	1057.396240234375	-596.03369140625	-1119.737060546875	1095.435791015625	-531.8504028320312	-856.9281005859375	1292.781982421875	-484.0312194824219	-1145.822875976562	1253.613159179688	-539.1171264648438	-1071.224487304688	1520.273803710938	-522.7969970703125	-878.5191040039062	1408.241333007812	-488.7453918457031	-1160.548950195312	1340.876220703125	-439.2583923339844	-1059.5068359375	1502.806396484375	-625.16064453125	-968.7571411132812	1491.69580078125	-687.787353515625	-982.9959106445312	1363.097534179688	-772.3988037109375	-956.9149169921875	1145.653564453125	-797.0948486328125	-1019.15380859375	1124.90478515625	-739.1396484375	-833.814208984375	925.7503051757812	-741.3316650390625	-898.2354736328125	897.2255859375	-800.6168212890625	-929.1157836914062	1036.974243164062	-808.682373046875	-803.7084350585938	746.6448364257812	-716.36376953125	-869.824462890625	831.1748046875	-792.6718139648438	-807.6058349609375	850.8392333984375	-759.6063842773438	-1043.86083984375	1484.433227539062	-335.3853759765625	-1076.918334960938	1414.427734375	-276.1217956542969	-1107.23681640625	1125.735473632812	-231.0041351318359	-1084.48046875	1118.216918945312	-326.3906860351562	-937.6549072265625	923.36328125	-205.0574798583984	-1017.051452636719	891.456787109375	-183.1693267822266	-1080.802490234375	1054.833984375	-205.8295288085938	-880.009521484375	742.602294921875	-218.2882995605469	-898.14013671875	837.0311279296875	-187.0465393066406	-974.6834716796875	816.1142578125	-174.4552154541016	-1041.398315429688	1661.682250976562	-422.8818054199219	-855.1888427734375	1738.93408203125	-503.4518432617188	-883.7369995117188	1718.134521484375	-378.6779174804688	-1020.384460449219	1690.620483398438	-555.8865356445312	-1002.923767089844	990.5386352539062	-705.1256713867188	-989.496337890625	1012.362060546875	-334.7557678222656	-902.6487426757812	1035.603881835938	-378.3883361816406	-885.9720458984375	1031.37646484375	-636.7079467773438	-860.3824462890625	498.8979797363281	-710.5883178710938	-893.24853515625	643.5405883789062	-720.6552124023438	-1243.913452148438	209.3512573242188	-705.2613525390625	-1038.112548828125	349.3136291503906	-721.1158447265625	-1084.351806640625	64.70458221435547	-702.0194091796875	-1117.675903320312	92.83209228515625	-651.3497924804688	-1178.662353515625	127.9073944091797	-752.9730224609375	-1270.287475585938	243.6776275634766	-633.137451171875	-912.8175659179688	511.7186279296875	-394.79541015625	-913.7153930664062	781.2391357421875	-334.3519592285156	-1000.552062988281	32.70679092407227	-457.5442199707031	-899.9669189453125	389.9562072753906	-419.5586242675781	-776.8911743164062	42.72489929199219	-439.4646606445312	-818.7325439453125	42.17734909057617	-496.2780456542969	-900.3182983398438	34.99477386474609	-398.843505859375	-1033.034057617188	31.86607360839844	-535.5662841796875	
188	1.87	-1122.57958984375	1055.155029296875	-472.1914978027344	-1106.314697265625	1057.969604492188	-594.5675659179688	-1112.13818359375	1095.920043945312	-530.1785888671875	-849.744140625	1293.611328125	-481.0867004394531	-1138.301391601562	1254.07568359375	-537.0791015625	-1064.0537109375	1520.784057617188	-520.7008056640625	-871.3751831054688	1409.042236328125	-486.1566772460938	-1153.37939453125	1341.436279296875	-437.2232360839844	-1052.165771484375	1503.260620117188	-623.0166015625	-961.3594360351562	1492.2216796875	-685.4359130859375	-975.30712890625	1363.633544921875	-770.0848388671875	-948.5050659179688	1146.194946289062	-794.7239990234375	-1010.437194824219	1125.00537109375	-736.6060791015625	-821.0125122070312	929.309326171875	-737.2693481445312	-885.1246337890625	898.64599609375	-795.92822265625	-918.804931640625	1037.739868164062	-805.5137939453125	-786.36474609375	751.4906005859375	-710.3828125	-855.0465698242188	833.3388061523438	-787.356689453125	-793.0776977539062	854.91650390625	-754.8634643554688	-1037.079956054688	1485.343139648438	-333.251953125	-1069.91796875	1415.344360351562	-273.7405700683594	-1097.93359375	1126.3955078125	-227.4939575195312	-1075.656494140625	1118.795043945312	-323.0579528808594	-925.8440551757812	926.1382446289062	-201.6257476806641	-1004.683227539062	893.2432250976562	-179.2982482910156	-1070.6474609375	1055.803955078125	-202.2186126708984	-865.927734375	746.1295776367188	-214.5130310058594	-885.1751098632812	840.41064453125	-183.4819946289062	-961.3936767578125	818.4873046875	-170.5560913085938	-1034.263793945312	1662.48388671875	-420.864501953125	-847.6136474609375	1739.368408203125	-500.6440734863281	-876.65673828125	1718.53662109375	-376.0035095214844	-1012.693786621094	1691.5	-553.7691650390625	-993.3624877929688	991.7805786132812	-702.9208984375	-984.2117919921875	1011.837585449219	-331.8016662597656	-896.6632080078125	1035.81787109375	-374.5283203125	-877.4888305664062	1032.419311523438	-632.7234497070312	-841.904296875	501.5931396484375	-703.96533203125	-877.5841064453125	645.7418823242188	-715.8020629882812	-1217.350463867188	200.9590759277344	-702.4155883789062	-1015.698852539062	347.1421813964844	-715.9911499023438	-1051.293823242188	63.9992561340332	-696.8167724609375	-1086.681640625	90.20112609863281	-646.6510620117188	-1147.714477539062	122.7382583618164	-749.236083984375	-1246.197387695312	234.0381622314453	-630.6571044921875	-911.402099609375	511.10302734375	-393.5285949707031	-909.4380493164062	780.4193115234375	-331.8600158691406	-1000.538452148438	32.81057357788086	-457.7684020996094	-898.8862915039062	389.4964294433594	-418.8165283203125	-776.7642211914062	42.52390289306641	-439.5340576171875	-818.678466796875	42.04069519042969	-496.2229919433594	-900.3751220703125	35.00346374511719	-398.8030395507812	-1032.976806640625	31.91747283935547	-535.8743286132812	
189	1.88	-1115.460083007812	1055.531982421875	-470.9241943359375	-1098.290405273438	1058.4931640625	-593.1400146484375	-1104.5458984375	1096.35205078125	-528.5470581054688	-842.553466796875	1294.324829101562	-478.1011657714844	-1130.776977539062	1254.473388671875	-535.0823364257812	-1056.836669921875	1521.218627929688	-518.6451416015625	-864.2000732421875	1409.728149414062	-483.5431823730469	-1146.203002929688	1341.94091796875	-435.2377624511719	-1044.737426757812	1503.624267578125	-620.9132080078125	-953.848388671875	1492.616943359375	-683.09375	-967.538330078125	1364.053588867188	-767.7877197265625	-940.1282958984375	1146.614501953125	-792.384521484375	-1001.794494628906	1125.018310546875	-734.1232299804688	-808.431396484375	932.7831420898438	-733.19189453125	-872.1738891601562	900.0369262695312	-791.2557983398438	-908.5736694335938	1038.41064453125	-802.3599243164062	-769.4713745117188	756.3023071289062	-704.34912109375	-840.4766845703125	835.4891967773438	-782.0311889648438	-778.8538818359375	858.9141235351562	-750.070068359375	-1030.300903320312	1486.177978515625	-331.1500549316406	-1062.939208984375	1416.186767578125	-271.3970031738281	-1088.683715820312	1126.998413085938	-224.0526123046875	-1066.907592773438	1119.32275390625	-319.80224609375	-914.2421264648438	928.7568359375	-198.3325653076172	-992.5501098632812	894.9481201171875	-175.5383605957031	-1060.5849609375	1056.715454101562	-198.6920928955078	-852.2578735351562	749.4551391601562	-210.9116668701172	-872.5015258789062	843.611328125	-180.0757598876953	-948.3964233398438	820.7506713867188	-166.7854156494141	-1027.111206054688	1663.210571289062	-418.9374084472656	-840.0369262695312	1739.71875	-497.9469299316406	-869.5751342773438	1718.914428710938	-373.4336853027344	-1004.97119140625	1692.239990234375	-551.7546997070312	-983.8345336914062	992.97412109375	-700.7138671875	-978.8526000976562	1011.256713867188	-328.8884582519531	-890.7127685546875	1035.9501953125	-370.7249450683594	-869.037353515625	1033.374755859375	-628.7623901367188	-823.7973022460938	504.3309326171875	-697.007080078125	-862.0947265625	647.9808959960938	-710.730712890625	-1190.015625	191.7946166992188	-699.2888793945312	-993.1751098632812	344.6012268066406	-710.6160278320312	-1017.720520019531	63.01825714111328	-691.3170776367188	-1055.093872070312	87.16168212890625	-641.6570434570312	-1116.1015625	117.0734634399414	-745.1559448242188	-1221.30517578125	223.4674377441406	-627.9064331054688	-910.055908203125	510.4955444335938	-392.2717895507812	-905.2025146484375	779.5797119140625	-329.44384765625	-1000.5234375	32.91352844238281	-457.978759765625	-897.860107421875	389.0513610839844	-418.0663757324219	-776.6587524414062	42.34889984130859	-439.5967712402344	-818.6414184570312	41.91810607910156	-496.17138671875	-900.4368896484375	35.00909805297852	-398.7569885253906	-1032.924194335938	31.95807647705078	-536.14794921875	
190	1.89	-1108.332641601562	1055.857788085938	-469.68359375	-1090.281005859375	1058.951171875	-591.7321166992188	-1096.960327148438	1096.720703125	-526.9447021484375	-835.3506469726562	1294.904907226562	-475.0836791992188	-1123.247802734375	1254.800903320312	-533.1198120117188	-1049.560302734375	1521.571655273438	-516.622314453125	-856.9849243164062	1410.284545898438	-480.9048461914062	-1139.011840820312	1342.385864257812	-433.2915344238281	-1037.21240234375	1503.89111328125	-618.845458984375	-946.21337890625	1492.866088867188	-680.7573852539062	-959.6795654296875	1364.337768554688	-765.4955444335938	-931.756591796875	1146.897827148438	-790.0659790039062	-993.2039794921875	1124.925048828125	-731.6920776367188	-796.0803833007812	936.1239624023438	-729.0982055664062	-859.38134765625	901.3744506835938	-786.62255859375	-898.4057006835938	1038.971435546875	-799.2200317382812	-753.0630493164062	761.0150756835938	-698.3002319335938	-826.1293334960938	837.5960693359375	-776.728515625	-764.940673828125	862.7852172851562	-745.2376708984375	-1023.503967285156	1486.923217773438	-329.0714721679688	-1055.96435546875	1416.941040039062	-269.0848999023438	-1079.48974609375	1127.529541015625	-220.6808624267578	-1058.23779296875	1119.786010742188	-316.6200561523438	-902.8544921875	931.1964721679688	-195.1760406494141	-980.6671752929688	896.5498657226562	-171.8988952636719	-1050.618041992188	1057.55078125	-195.2509613037109	-838.98779296875	752.5612182617188	-207.4794769287109	-860.1242065429688	846.6088256835938	-176.8232116699219	-935.698974609375	822.879638671875	-163.1463470458984	-1019.929870605469	1663.843505859375	-417.0925903320312	-832.4527587890625	1739.978759765625	-495.3516235351562	-862.484619140625	1719.257446289062	-370.95947265625	-997.2090454101562	1692.826538085938	-549.8328857421875	-974.3663940429688	994.0899658203125	-698.4977416992188	-973.3657836914062	1010.648986816406	-326.0417785644531	-884.7651977539062	1036.0078125	-367.0162353515625	-860.6302490234375	1034.232177734375	-624.8558959960938	-806.1248779296875	507.0856628417969	-689.7687377929688	-846.8401489257812	650.2324829101562	-705.4515991210938	-1161.897705078125	181.9624176025391	-695.8534545898438	-970.5667114257812	341.7349853515625	-705.011474609375	-983.68310546875	61.87022399902344	-685.51025390625	-1022.94873046875	83.81725311279297	-636.3457641601562	-1083.856079101562	111.0088806152344	-740.7108154296875	-1195.578002929688	212.0891723632812	-624.8580322265625	-908.767578125	509.9008483886719	-391.0171203613281	-901.0040893554688	778.7252807617188	-327.1066284179688	-1000.511535644531	33.01058959960938	-458.1681213378906	-896.8853759765625	388.6224975585938	-417.2966003417969	-776.5784912109375	42.2031135559082	-439.6497192382812	-818.6259765625	41.81364440917969	-496.1202392578125	-900.5050659179688	35.0091438293457	-398.7023620605469	-1032.878662109375	31.9843692779541	-536.3751220703125	
